<svg width="192" height="136" viewBox="0 0 192 136" fill="none" xmlns="http://www.w3.org/2000/svg">
<path d="M18.8841 50.8281H173.116C178.853 50.8281 183.5 55.4571 183.5 61.1628C183.5 66.8684 178.853 71.4974 173.116 71.4974H18.8841C13.1468 71.4974 8.5 66.8684 8.5 61.1628C8.5 55.4571 13.1468 50.8281 18.8841 50.8281Z" stroke="#FF7800"/>
<path d="M150.595 39.4062H182.616C183.381 39.4062 183.999 40.0214 183.999 40.7802C183.999 41.5391 183.381 42.1542 182.616 42.1542H150.595C149.829 42.1542 149.211 41.5391 149.211 40.7802C149.211 40.0214 149.829 39.4062 150.595 39.4062Z" fill="#DFDFE0"/>
<path d="M9.38361 8H41.4047C42.1704 8 42.7883 8.61511 42.7883 9.37397C42.7883 10.1328 42.1704 10.7479 41.4047 10.7479H9.38361C8.61792 10.7513 8 10.1362 8 9.37397C8 8.61511 8.61792 8 9.38361 8Z" fill="#DFDFE0"/>
<path d="M9.38361 20.0078H103.371C104.137 20.0078 104.755 20.6229 104.755 21.3851C104.755 22.144 104.137 22.7591 103.371 22.7591H9.38361C8.61792 22.7591 8 22.144 8 21.3851C8 20.6263 8.61792 20.0078 9.38361 20.0078Z" fill="#DFDFE0"/>
<path d="M17.402 57.9141H112.638C113.414 57.9141 114.04 59.2499 114.04 60.9053C114.04 62.5533 113.414 63.8892 112.638 63.8892H17.402C16.6261 63.8892 16 62.5533 16 60.9053C16 59.2572 16.6261 57.9141 17.402 57.9141Z" fill="#DFDFE0"/>
<path d="M86.5078 95.2151C86.5078 102.423 92.3781 108.266 99.6185 108.266C101.811 108.266 103.877 107.731 105.69 106.785L118.395 126.843C119.174 128.07 120.836 128.378 122.005 127.508C123.096 126.696 123.331 125.165 122.535 124.062L108.562 104.756C111.124 102.372 112.729 98.9793 112.729 95.2151C112.729 88.0076 106.859 82.1641 99.6185 82.1641C92.3781 82.1641 86.5078 88.0076 86.5078 95.2151ZM88.3078 95.2151C88.3078 88.9971 93.3721 83.9526 99.6218 83.9526C105.872 83.9526 110.936 88.9938 110.936 95.2151C110.936 101.433 105.872 106.478 99.6218 106.478C93.3755 106.478 88.3078 101.436 88.3078 95.2151Z" fill="#484662"/>
<path d="M165.231 64.7637H167.899V63.4359H165.231V64.7637ZM160.562 56.7969V58.1247H172.567V56.7969H160.562ZM162.563 61.4442H170.567V60.1164H162.563V61.4442Z" fill="#121212"/>
</svg>
