<svg width="272" height="158" viewBox="0 0 272 158" fill="none" xmlns="http://www.w3.org/2000/svg">
<path d="M255.81 8H16.1905C11.667 8 8 11.667 8 16.1905V66.1992C8 70.7227 11.667 74.3897 16.1905 74.3897H255.81C260.333 74.3897 264 70.7227 264 66.1992V16.1905C264 11.667 260.333 8 255.81 8Z" fill="#FAFAFA"/>
<path d="M125.818 17.5938H71.6797V20.7064H125.818V17.5938Z" fill="#E6E6E6"/>
<path d="M155.281 28.9453H71.6797V32.0581H155.281V28.9453Z" fill="#FF7800"/>
<path d="M139.813 39.6406H71.6797V42.7534H139.813V39.6406Z" fill="#E6E6E6"/>
<path d="M111.455 50.2969H71.6797V53.4097H111.455V50.2969Z" fill="#E6E6E6"/>
<path d="M131.711 60.9609H71.6797V64.0737H131.711V60.9609Z" fill="#E6E6E6"/>
<path d="M53.6293 16.4844H47V23.1235H53.6293V16.4844Z" fill="#E6E6E6"/>
<path d="M53.6293 27.1875H47V33.8266H53.6293V27.1875Z" fill="#FF7800"/>
<path d="M53.6293 37.875H47V44.5141H53.6293V37.875Z" fill="#E6E6E6"/>
<path d="M53.6293 48.5703H47V55.2094H53.6293V48.5703Z" fill="#E6E6E6"/>
<path d="M53.6293 59.2734H47V65.9126H53.6293V59.2734Z" fill="#E6E6E6"/>
<path d="M228.199 31.6016H206.102V53.7316H228.199V31.6016Z" fill="#E6E6E6"/>
<path d="M255.81 83.6094H16.1905C11.667 83.6094 8 87.2764 8 91.7999V141.809C8 146.332 11.667 149.999 16.1905 149.999H255.81C260.333 149.999 264 146.332 264 141.809V91.7999C264 87.2764 260.333 83.6094 255.81 83.6094Z" fill="#F7F7F7"/>
<path d="M65.0512 100.375H58.4219V107.014H65.0512V100.375Z" fill="#E6E6E6"/>
<path d="M53.6293 100.375H47V107.014H53.6293V100.375Z" fill="#FF7800"/>
<path d="M159.405 104.037C157.384 100.611 154.581 97.7149 151.225 95.5857C147.869 93.4564 144.056 92.1554 140.1 91.7894C136.144 91.4234 132.158 92.003 128.469 93.4805C124.78 94.958 121.494 97.2912 118.881 100.288L117.266 98.8745C120.101 95.6207 123.668 93.0875 127.672 91.4833C131.676 89.8791 136.003 89.2497 140.297 89.6469C144.591 90.044 148.73 91.4564 152.373 93.7679C156.015 96.0793 159.058 99.2238 161.251 102.943L159.405 104.037Z" fill="#E6E6E6"/>
<path d="M160.413 132.021L158.633 130.822C161.27 126.883 162.741 122.278 162.877 117.538C163.014 112.797 161.809 108.115 159.402 104.031L161.249 102.938C163.862 107.371 165.17 112.453 165.022 117.599C164.874 122.745 163.277 127.745 160.413 132.021Z" fill="#FF7800"/>
<path d="M117.486 135.021C113.051 130.061 110.581 123.648 110.54 116.99C110.498 110.333 112.889 103.89 117.262 98.875L118.878 100.289C114.85 104.908 112.647 110.844 112.684 116.977C112.722 123.11 114.998 129.018 119.083 133.587L117.486 135.021Z" fill="#FF7800"/>
<path d="M137.792 144.102C133.961 144.099 130.173 143.288 126.676 141.722C123.178 140.156 120.049 137.87 117.492 135.012L119.09 133.579C121.641 136.433 124.81 138.666 128.353 140.106C131.897 141.547 135.723 142.157 139.539 141.891C143.354 141.625 147.058 140.489 150.368 138.57C153.679 136.652 156.507 134.001 158.639 130.82L160.419 132.019C157.928 135.739 154.561 138.787 150.615 140.894C146.668 143.001 142.264 144.103 137.792 144.101V144.102Z" fill="#FF7800"/>
<path d="M228.199 103.906H206.102V126.036H228.199V103.906Z" fill="#E6E6E6"/>
<path d="M80.2337 113.336H47V116.449H80.2337V113.336Z" fill="#E6E6E6"/>
<path d="M85.9575 119.883H47V122.996H85.9575V119.883Z" fill="#E6E6E6"/>
<path d="M80.2337 126.445H47V129.558H80.2337V126.445Z" fill="#E6E6E6"/>
</svg>
