<svg width="161" height="115" viewBox="0 0 161 115" fill="none" xmlns="http://www.w3.org/2000/svg">
<path d="M135.615 23H8V58H135.615V23Z" fill="#FAFAFA"/>
<path d="M135.615 72H8V107H135.615V72Z" fill="#FAFAFA"/>
<path d="M133.254 58.5899H10.2773C9.67353 58.5892 9.0947 58.3445 8.66778 57.9096C8.24086 57.4747 8.0007 56.8851 8 56.2701V25.1948C8.0007 24.5798 8.24086 23.9902 8.66778 23.5552C9.0947 23.1203 9.67353 22.8757 10.2773 22.875H133.254C133.858 22.8757 134.436 23.1203 134.863 23.5552C135.29 23.9902 135.53 24.5798 135.531 25.1948V56.2705C135.53 56.8855 135.29 57.475 134.863 57.9098C134.436 58.3446 133.858 58.5892 133.254 58.5899ZM10.2773 23.8028C9.91499 23.8032 9.56763 23.95 9.31144 24.2109C9.05526 24.4719 8.91118 24.8258 8.91083 25.1948V56.2705C8.91118 56.6396 9.05526 56.9934 9.31144 57.2544C9.56763 57.5154 9.91499 57.6621 10.2773 57.6625H133.254C133.616 57.6621 133.963 57.5154 134.22 57.2544C134.476 56.9934 134.62 56.6396 134.62 56.2705V25.1948C134.62 24.8258 134.476 24.4719 134.22 24.2109C133.963 23.95 133.616 23.8032 133.254 23.8028H10.2773Z" fill="#E6E6E6"/>
<path d="M133.254 106.59H10.2773C9.67353 106.589 9.0947 106.345 8.66778 105.91C8.24086 105.475 8.0007 104.885 8 104.27V73.1948C8.0007 72.5798 8.24086 71.9902 8.66778 71.5552C9.0947 71.1203 9.67353 70.8757 10.2773 70.875H133.254C133.858 70.8757 134.436 71.1203 134.863 71.5552C135.29 71.9902 135.53 72.5798 135.531 73.1948V104.27C135.53 104.885 135.29 105.475 134.863 105.91C134.436 106.345 133.858 106.589 133.254 106.59ZM10.2773 71.8028C9.91499 71.8032 9.56763 71.95 9.31144 72.2109C9.05526 72.4719 8.91118 72.8258 8.91083 73.1948V104.27C8.91118 104.64 9.05526 104.993 9.31144 105.254C9.56763 105.515 9.91499 105.662 10.2773 105.662H133.254C133.616 105.662 133.963 105.515 134.22 105.254C134.476 104.993 134.62 104.64 134.62 104.27V73.1948C134.62 72.8258 134.476 72.4719 134.22 72.2109C133.963 71.95 133.616 71.8032 133.254 71.8028H10.2773Z" fill="#E6E6E6"/>
<path d="M26.2132 50.4715C31.4957 50.4715 35.778 46.1092 35.778 40.7279C35.778 35.3467 31.4957 30.9844 26.2132 30.9844C20.9307 30.9844 16.6484 35.3467 16.6484 40.7279C16.6484 46.1092 20.9307 50.4715 26.2132 50.4715Z" fill="#E6E6E6"/>
<path d="M26.2132 99.4715C31.4957 99.4715 35.778 95.1092 35.778 89.7279C35.778 84.3467 31.4957 79.9844 26.2132 79.9844C20.9307 79.9844 16.6484 84.3467 16.6484 89.7279C16.6484 95.1092 20.9307 99.4715 26.2132 99.4715Z" fill="#E6E6E6"/>
<path d="M48.3022 34.2346C47.884 34.2417 47.4853 34.4159 47.192 34.7196C46.8987 35.0234 46.7344 35.4324 46.7344 35.8585C46.7344 36.2845 46.8987 36.6935 47.192 36.9973C47.4853 37.301 47.884 37.4752 48.3022 37.4823H123.454C123.877 37.4906 124.286 37.3275 124.591 37.0289C124.895 36.7302 125.071 36.3205 125.079 35.8898C125.087 35.4592 124.927 35.0429 124.634 34.7325C124.341 34.4221 123.939 34.243 123.516 34.2347L123.507 34.2346C123.489 34.2343 123.472 34.2343 123.454 34.2346H48.3022Z" fill="#E6E6E6"/>
<path d="M48.3022 83.2346C47.884 83.2417 47.4853 83.4159 47.192 83.7196C46.8987 84.0234 46.7344 84.4324 46.7344 84.8585C46.7344 85.2845 46.8987 85.6935 47.192 85.9973C47.4853 86.301 47.884 86.4752 48.3022 86.4823H123.454C123.877 86.4906 124.286 86.3275 124.591 86.0289C124.895 85.7302 125.071 85.3205 125.079 84.8898C125.087 84.4592 124.927 84.0429 124.634 83.7325C124.341 83.4221 123.939 83.243 123.516 83.2347L123.507 83.2346C123.489 83.2343 123.472 83.2343 123.454 83.2346H48.3022Z" fill="#E6E6E6"/>
<path d="M48.3022 43.9768C47.884 43.9838 47.4853 44.1581 47.192 44.4618C46.8987 44.7656 46.7344 45.1746 46.7344 45.6006C46.7344 46.0267 46.8987 46.4357 47.192 46.7394C47.4853 47.0432 47.884 47.2174 48.3022 47.2245H123.454C123.876 47.2305 124.284 47.0656 124.587 46.7662C124.89 46.4668 125.064 46.0572 125.071 45.6272C125.078 45.1972 124.917 44.782 124.624 44.4726C124.33 44.1632 123.929 43.9849 123.507 43.9768C123.489 43.9765 123.472 43.9765 123.454 43.9768H48.3022Z" fill="#E6E6E6"/>
<path d="M48.3022 92.9768C47.884 92.9838 47.4853 93.1581 47.192 93.4618C46.8987 93.7656 46.7344 94.1746 46.7344 94.6006C46.7344 95.0267 46.8987 95.4357 47.192 95.7394C47.4853 96.0432 47.884 96.2174 48.3022 96.2245H123.454C123.876 96.2305 124.284 96.0656 124.587 95.7662C124.89 95.4668 125.064 95.0572 125.071 94.6272C125.078 94.1972 124.917 93.782 124.624 93.4726C124.33 93.1632 123.929 92.9849 123.507 92.9768C123.489 92.9765 123.472 92.9765 123.454 92.9768H48.3022Z" fill="#E6E6E6"/>
<path d="M128.397 47.3964C138.113 47.3964 145.989 39.3729 145.989 29.4755C145.989 19.5781 138.113 11.5547 128.397 11.5547C118.681 11.5547 110.805 19.5781 110.805 29.4755C110.805 39.3729 118.681 47.3964 128.397 47.3964Z" fill="white"/>
<path d="M122.289 37.5358C122.259 37.5358 122.229 37.5355 122.198 37.5349H112.743C111.543 37.5155 110.399 37.0166 109.557 36.1456C108.715 35.2746 108.243 34.1014 108.242 32.879C108.242 31.6566 108.713 30.483 109.554 29.6113C110.395 28.7396 111.539 28.2397 112.739 28.2194H122.203C122.249 28.2185 122.3 28.2185 122.35 28.2194C123.557 28.2364 124.708 28.7388 125.553 29.6172C126.398 30.4955 126.867 31.6785 126.859 32.9082C126.851 34.1379 126.366 35.3144 125.51 36.1813C124.654 37.0482 123.496 37.5351 122.289 37.5358Z" fill="#FF7800"/>
<path d="M151.474 82.3425C150.839 82.6425 150.113 82.6734 149.456 82.4282C148.799 82.1831 148.264 81.6821 147.97 81.0354L132.792 47.7098C132.497 47.063 132.467 46.3237 132.708 45.6543C132.948 44.9849 133.44 44.4403 134.075 44.1403C134.71 43.8403 135.436 43.8094 136.093 44.0545C136.75 44.2995 137.285 44.8004 137.579 45.4471L152.757 78.7727C153.052 79.4194 153.082 80.1589 152.841 80.8283C152.601 81.4978 152.109 82.0424 151.474 82.3425Z" fill="#1B1714"/>
<path d="M135.876 46.4776C135.409 46.4776 134.962 46.2887 134.632 45.9527C134.302 45.6166 134.116 45.1608 134.116 44.6855V21.8576H112.126C111.66 21.8576 111.212 21.6688 110.882 21.3327C110.553 20.9966 110.367 20.5408 110.367 20.0655C110.367 19.5902 110.553 19.1344 110.882 18.7983C111.212 18.4622 111.66 18.2734 112.126 18.2734H135.876C136.342 18.2734 136.79 18.4622 137.12 18.7983C137.449 19.1344 137.635 19.5902 137.635 20.0655V44.6855C137.635 45.1608 137.449 45.6166 137.12 45.9527C136.79 46.2887 136.342 46.4776 135.876 46.4776Z" fill="#FF7800"/>
<path d="M136.292 49.0127C132.504 50.8028 128.281 51.4085 124.156 50.7534C120.03 50.0982 116.188 48.2116 113.115 45.3321C110.042 42.4525 107.877 38.7094 106.892 34.5761C105.908 30.4427 106.148 26.1048 107.584 22.1108C109.02 18.1169 111.586 14.6463 114.957 12.1379C118.329 9.6295 122.356 8.19602 126.527 8.0187C130.699 7.84139 134.828 8.9282 138.394 11.1417C141.959 13.3552 144.8 16.596 146.557 20.4543C148.907 25.629 149.146 31.5418 147.221 36.8957C145.297 42.2496 141.366 46.6073 136.292 49.0127ZM120.744 14.8743C117.903 16.2168 115.517 18.3873 113.888 21.1112C112.258 23.8352 111.458 26.9902 111.588 30.1774C111.719 33.3646 112.774 36.4408 114.621 39.017C116.468 41.5931 119.023 43.5536 121.963 44.6504C124.904 45.7472 128.098 45.9312 131.141 45.1789C134.184 44.4267 136.94 42.7721 139.06 40.4244C141.18 38.0767 142.569 35.1413 143.051 31.9894C143.533 28.8375 143.088 25.6107 141.77 22.717C139.999 18.84 136.79 15.837 132.849 14.3667C128.907 12.8964 124.554 13.079 120.744 14.8743Z" fill="#1B1714"/>
</svg>
